<svg id="Layer_1" data-name="Layer 1" xmlns="http://www.w3.org/2000/svg" xmlns:xlink="http://www.w3.org/1999/xlink" viewBox="0 0 150 300"><defs><style>.cls-1{fill:#3d3d3d;}.cls-2{fill:#191e66;}.cls-3{fill:url(#linear-gradient);}</style><linearGradient id="linear-gradient" x1="28.03" y1="142.55" x2="28.03" y2="151.92" gradientUnits="userSpaceOnUse"><stop offset="0" stop-color="#e500ff"/><stop offset="1" stop-color="blue"/></linearGradient></defs><title>hd_svg_logo</title><path class="cls-1" d="M44.58,143.73h9.63v1.89H47.27v3.93h6.94v1.91H44.58Z"/><path class="cls-1" d="M55,143.73h9.51v5H61.69L65,151.46H61.72l-3.36-2.73v-1.91h3.45v-1.2H57.66v5.84H55Z"/><path class="cls-1" d="M65.22,143.73H75.34a1.42,1.42,0,0,0,0,.32c0,.15,0,.32-.05.51s0,.37-.08.56a4.4,4.4,0,0,1-.1.5H67.91v1h6.83v1.91H67.91v1h7.34a5,5,0,0,1-.42.5c-.21.21-.42.42-.65.63l-.63.55a.91.91,0,0,1-.36.23h-8Z"/><path class="cls-1" d="M76,143.73h7.8a1.38,1.38,0,0,1,.6.14,2,2,0,0,1,.57.4,2.36,2.36,0,0,1,.43.62,2,2,0,0,1,.16.81v3.78a3.23,3.23,0,0,1-.08.68,1.93,1.93,0,0,1-.3.65,1.55,1.55,0,0,1-.54.47,1.8,1.8,0,0,1-.84.18H76Zm6.73,5.82a.42.42,0,0,0,.15-.29V145.9a.24.24,0,0,0,0-.12s0-.08-.09-.16H78.67v3.93Z"/><path class="cls-1" d="M100.87,148.86v2.6H90.8v-7.73h10.07a2.41,2.41,0,0,0-.05.32c0,.15,0,.32,0,.51s0,.37-.07.56a4.24,4.24,0,0,1-.11.5H93.48v3.93h4.69v-2.7Z"/><path class="cls-1" d="M111.13,143.73v7.73h-9.5v-7.73h2.69v5.82h4.14v-5.82Z"/><path class="cls-1" d="M111.88,151.46v-7.73h2.71v7.73Z"/><path class="cls-1" d="M121.59,147.54l2.7,2v1.91h-8.94v-7.73H118v5.82h3.56Z"/><path class="cls-1" d="M125,143.73h7.8a1.35,1.35,0,0,1,.6.14,2,2,0,0,1,.57.4,2.14,2.14,0,0,1,.43.62,2,2,0,0,1,.17.81v3.78a2.71,2.71,0,0,1-.09.68,2.12,2.12,0,0,1-.29.65,1.58,1.58,0,0,1-.55.47,1.8,1.8,0,0,1-.84.18H125Zm6.73,5.82a.42.42,0,0,0,.15-.29V145.9a.24.24,0,0,0,0-.12,1,1,0,0,0-.09-.16h-4.06v3.93Z"/><path class="cls-2" d="M42.41,146.68c0-4.28-2.84-5.75-2.84-5.75a5.66,5.66,0,0,0-3-.85l-17.1.11a12.42,12.42,0,0,0-2.1.34,4.64,4.64,0,0,0-2.29,1.53,7.19,7.19,0,0,0-1.55,4.48c-.26,4.68,3.1,6.06,4.45,6.76a3.69,3.69,0,0,0,2.4.2l-.93.47s3.24,5.86,8.58,5.95c5.28-.43,8.37-5.89,8.37-5.89l-1.14-.46S42.09,154.23,42.41,146.68ZM30,156a5.22,5.22,0,0,1-2,.35,5.91,5.91,0,0,1-2-.35,4.41,4.41,0,0,1-1.69-1c.67,0,1.29,0,1.89.06l1.77.06c.58,0,1.16,0,1.75-.06s1.18-.14,1.86-.18A3.92,3.92,0,0,1,30,156Zm2.21-5a7.25,7.25,0,0,0-3.64-1.25A6.3,6.3,0,0,0,24,151a4.36,4.36,0,0,1-3.08.89c-1.45-.18-3.82-.65-4.9-3.05A5.49,5.49,0,0,1,18,142.1a5.26,5.26,0,0,1,2.55-.84H35.59a5.18,5.18,0,0,1,4.62,3.62,5.1,5.1,0,0,1-.72,4.69,6.35,6.35,0,0,1-3.88,2.27A5,5,0,0,1,32.19,151.05Z"/><path class="cls-2" d="M39.49,149.57a5.1,5.1,0,0,0,.72-4.69,5.18,5.18,0,0,0-4.62-3.62H20.52a5.26,5.26,0,0,0-2.55.84,5.49,5.49,0,0,0-1.91,6.75c1.08,2.4,3.45,2.87,4.9,3.05A4.36,4.36,0,0,0,24,151a6.3,6.3,0,0,1,4.51-1.21,7.25,7.25,0,0,1,3.64,1.25,5,5,0,0,0,3.42.79A6.35,6.35,0,0,0,39.49,149.57Zm-14.64-2.13H22.74v2.12h-2.2v-2.12H18.43v-2.19h2.11v-2.12h2.2v2.12h2.11Zm10.09-4.52a1.21,1.21,0,1,1-1.21,1.21A1.21,1.21,0,0,1,34.94,142.92Zm-2.27,4.56a1.21,1.21,0,1,1,1.2-1.21A1.21,1.21,0,0,1,32.67,147.48Zm2.27,2.3a1.21,1.21,0,1,1,1.21-1.2A1.21,1.21,0,0,1,34.94,149.78Zm2.33-2.3a1.21,1.21,0,1,1,1.21-1.21A1.21,1.21,0,0,1,37.27,147.48Z"/><path class="cls-3" d="M39.49,149.57a5.1,5.1,0,0,0,.72-4.69,5.18,5.18,0,0,0-4.62-3.62H20.52a5.26,5.26,0,0,0-2.55.84,5.49,5.49,0,0,0-1.91,6.75c1.08,2.4,3.45,2.87,4.9,3.05A4.36,4.36,0,0,0,24,151a6.3,6.3,0,0,1,4.51-1.21,7.25,7.25,0,0,1,3.64,1.25,5,5,0,0,0,3.42.79A6.35,6.35,0,0,0,39.49,149.57Zm-14.64-2.13H22.74v2.12h-2.2v-2.12H18.43v-2.19h2.11v-2.12h2.2v2.12h2.11Zm10.09-4.52a1.21,1.21,0,1,1-1.21,1.21A1.21,1.21,0,0,1,34.94,142.92Zm-2.27,4.56a1.21,1.21,0,1,1,1.2-1.21A1.21,1.21,0,0,1,32.67,147.48Zm2.27,2.3a1.21,1.21,0,1,1,1.21-1.2A1.21,1.21,0,0,1,34.94,149.78Zm2.33-2.3a1.21,1.21,0,1,1,1.21-1.21A1.21,1.21,0,0,1,37.27,147.48Z"/><path class="cls-1" d="M44.83,155.72v-1.33h.24v1.32c0,.55.26.8.71.8s.72-.25.72-.8v-1.32h.24v1.33a1,1,0,1,1-1.91,0Z"/><path class="cls-1" d="M49.44,155.7v1h-.23v-1a.48.48,0,0,0-.53-.55.57.57,0,0,0-.61.63v.91h-.23V155h.22v.32a.76.76,0,0,1,.67-.34A.67.67,0,0,1,49.44,155.7Z"/><path class="cls-1" d="M50.49,154.25h.24v2.46h-.24Z"/><path class="cls-1" d="M51.62,155.84a.89.89,0,1,1,.89.89A.86.86,0,0,1,51.62,155.84Zm1.54,0a.65.65,0,1,0-.65.68A.64.64,0,0,0,53.16,155.84Z"/><path class="cls-1" d="M54.11,155.84A.86.86,0,0,1,55,155a.77.77,0,0,1,.69.35l-.18.12a.59.59,0,0,0-.51-.26.68.68,0,0,0,0,1.36.59.59,0,0,0,.51-.26l.18.12a.77.77,0,0,1-.69.35A.86.86,0,0,1,54.11,155.84Z"/><path class="cls-1" d="M57.19,155.84l-.41.37v.5h-.24v-2.46h.24v1.67l1-.95h.29l-.75.71.82,1h-.29Z"/><path class="cls-1" d="M58.87,154.41a.16.16,0,0,1,.17-.16.17.17,0,0,1,.17.16.17.17,0,0,1-.34,0Zm.05.56h.23v1.74h-.23Z"/><path class="cls-1" d="M61.83,155.7v1h-.24v-1a.48.48,0,0,0-.52-.55.57.57,0,0,0-.61.63v.91h-.24V155h.23v.32a.73.73,0,0,1,.66-.34A.67.67,0,0,1,61.83,155.7Z"/><path class="cls-1" d="M64.5,155v1.53a.76.76,0,0,1-.87.87,1.17,1.17,0,0,1-.81-.27l.12-.17a1.05,1.05,0,0,0,.68.23c.44,0,.65-.2.65-.63v-.22a.8.8,0,0,1-.68.34.85.85,0,1,1,0-1.7.79.79,0,0,1,.69.35V155Zm-.23.83a.66.66,0,1,0-.66.64A.63.63,0,0,0,64.27,155.8Z"/><path class="cls-1" d="M67.35,154.6h-.81v-.21h1.88v.21H67.6v2.11h-.25Z"/><path class="cls-1" d="M70.77,155.7v1h-.23v-1a.48.48,0,0,0-.53-.55.57.57,0,0,0-.61.63v.91h-.23v-2.46h.23v1a.75.75,0,0,1,.66-.32A.67.67,0,0,1,70.77,155.7Z"/><path class="cls-1" d="M73.35,155.91H71.89a.65.65,0,0,0,.69.61.69.69,0,0,0,.53-.23l.14.15a.92.92,0,0,1-1.59-.6.85.85,0,1,1,1.7,0S73.35,155.89,73.35,155.91Zm-1.46-.17h1.24a.62.62,0,0,0-1.24,0Z"/><path class="cls-1" d="M75.82,154.6v.91H77v.22h-1.2v1h-.24v-2.32h1.59v.21Z"/><path class="cls-1" d="M79.55,155v1.74h-.22v-.32a.69.69,0,0,1-.63.34A.68.68,0,0,1,78,156v-1h.24v1c0,.37.19.56.52.56a.57.57,0,0,0,.6-.64V155Z"/><path class="cls-1" d="M81.54,156.61a.57.57,0,0,1-.37.12.46.46,0,0,1-.51-.51v-1.05h-.31V155h.31v-.39h.24V155h.53v.2H80.9v1a.28.28,0,0,0,.3.32.39.39,0,0,0,.26-.09Z"/><path class="cls-1" d="M84,155v1.74h-.22v-.32a.69.69,0,0,1-.63.34.68.68,0,0,1-.74-.75v-1h.24v1c0,.37.19.56.52.56a.57.57,0,0,0,.6-.64V155Z"/><path class="cls-1" d="M85.9,155v.23h-.05a.56.56,0,0,0-.59.64v.89H85V155h.23v.34A.66.66,0,0,1,85.9,155Z"/><path class="cls-1" d="M88.24,155.91H86.78a.65.65,0,0,0,.69.61.69.69,0,0,0,.53-.23l.14.15a.93.93,0,0,1-1.6-.6.85.85,0,0,1,.86-.89.83.83,0,0,1,.84.89Zm-1.46-.17H88a.62.62,0,0,0-1.24,0Z"/><path class="cls-1" d="M92.11,156.5v.21H90.46v-2.32h1.6v.21H90.71v.83h1.2v.21h-1.2v.86Z"/><path class="cls-1" d="M92.84,155.84a.86.86,0,0,1,.9-.89.77.77,0,0,1,.69.35l-.18.12a.58.58,0,0,0-.51-.26.68.68,0,0,0,0,1.36.58.58,0,0,0,.51-.26l.18.12a.77.77,0,0,1-.69.35A.86.86,0,0,1,92.84,155.84Z"/><path class="cls-1" d="M95.09,155.84a.89.89,0,1,1,.89.89A.86.86,0,0,1,95.09,155.84Zm1.54,0a.65.65,0,1,0-.65.68A.64.64,0,0,0,96.63,155.84Z"/><path class="cls-1" d="M99.37,155.7v1h-.24v-1a.48.48,0,0,0-.52-.55.57.57,0,0,0-.61.63v.91h-.24V155H98v.32a.76.76,0,0,1,.67-.34A.68.68,0,0,1,99.37,155.7Z"/><path class="cls-1" d="M100.25,155.84a.89.89,0,1,1,.89.89A.86.86,0,0,1,100.25,155.84Zm1.54,0a.65.65,0,1,0-.65.68A.64.64,0,0,0,101.79,155.84Z"/><path class="cls-1" d="M105.8,155.7v1h-.24v-1c0-.37-.18-.55-.5-.55a.56.56,0,0,0-.58.63v.91h-.24v-1c0-.37-.19-.55-.5-.55a.56.56,0,0,0-.59.63v.91h-.24V155h.23v.31a.72.72,0,0,1,.64-.33.63.63,0,0,1,.62.37.78.78,0,0,1,.69-.37A.66.66,0,0,1,105.8,155.7Z"/><path class="cls-1" d="M106.8,154.41a.16.16,0,0,1,.17-.16.17.17,0,0,1,.17.16.17.17,0,0,1-.34,0Zm0,.56h.23v1.74h-.23Z"/><path class="cls-1" d="M109.67,155.91h-1.46a.65.65,0,0,0,.69.61.69.69,0,0,0,.53-.23l.14.15a.93.93,0,0,1-1.6-.6.85.85,0,0,1,.86-.89.83.83,0,0,1,.84.89Zm-1.46-.17h1.24a.62.62,0,0,0-1.24,0Z"/><path class="cls-1" d="M110.32,156.51l.11-.18a1,1,0,0,0,.62.19c.33,0,.47-.11.47-.28,0-.46-1.13-.1-1.13-.79,0-.28.24-.5.69-.5a1.15,1.15,0,0,1,.61.17l-.1.18a.92.92,0,0,0-.51-.15c-.32,0-.46.13-.46.29,0,.48,1.13.12,1.13.79,0,.3-.26.5-.72.5A1.13,1.13,0,0,1,110.32,156.51Z"/><path class="cls-1" d="M114.17,154.6v.91h1.2v.22h-1.2v1h-.24v-2.32h1.59v.21Z"/><path class="cls-1" d="M116.15,155.84a.89.89,0,1,1,.89.89A.86.86,0,0,1,116.15,155.84Zm1.54,0a.65.65,0,1,0-.65.68A.63.63,0,0,0,117.69,155.84Z"/><path class="cls-1" d="M119.7,155v.23h-.06a.56.56,0,0,0-.58.64v.89h-.24V155h.23v.34A.66.66,0,0,1,119.7,155Z"/><path class="cls-1" d="M123.53,155.55h.23v.89a1.31,1.31,0,0,1-.85.29,1.18,1.18,0,1,1,.87-2l-.16.16a.93.93,0,0,0-.7-.27,1,1,0,1,0,0,1.92,1,1,0,0,0,.61-.18Z"/><path class="cls-1" d="M126.14,155.63v1.08h-.23v-.27a.66.66,0,0,1-.6.29c-.4,0-.64-.21-.64-.51s.17-.49.67-.49h.56v-.11c0-.3-.17-.46-.5-.46a1,1,0,0,0-.58.2l-.1-.17a1.09,1.09,0,0,1,.71-.24A.63.63,0,0,1,126.14,155.63Zm-.24.56v-.29h-.55c-.34,0-.45.14-.45.31s.17.33.44.33A.55.55,0,0,0,125.9,156.19Z"/><path class="cls-1" d="M130.07,155.7v1h-.24v-1c0-.37-.18-.55-.5-.55a.56.56,0,0,0-.58.63v.91h-.24v-1c0-.37-.19-.55-.5-.55a.56.56,0,0,0-.59.63v.91h-.23V155h.22v.31a.72.72,0,0,1,.64-.33.63.63,0,0,1,.62.37.78.78,0,0,1,.69-.37A.66.66,0,0,1,130.07,155.7Z"/><path class="cls-1" d="M132.65,155.91h-1.47a.65.65,0,0,0,.69.61.73.73,0,0,0,.54-.23l.13.15a.86.86,0,0,1-.67.29.86.86,0,0,1-.92-.89.85.85,0,1,1,1.7,0Zm-1.47-.17h1.24a.62.62,0,0,0-1.24,0Z"/><path class="cls-1" d="M134.42,155v.23h-.06a.56.56,0,0,0-.58.64v.89h-.24V155h.23v.34A.66.66,0,0,1,134.42,155Z"/><path class="cls-1" d="M135,156.51l.1-.18a1.06,1.06,0,0,0,.62.19c.33,0,.47-.11.47-.28,0-.46-1.13-.1-1.13-.79,0-.28.24-.5.69-.5a1.22,1.22,0,0,1,.62.17l-.11.18a.92.92,0,0,0-.51-.15c-.32,0-.46.13-.46.29,0,.48,1.14.12,1.14.79,0,.3-.27.5-.72.5A1.11,1.11,0,0,1,135,156.51Z"/></svg>